<svg xmlns="http://www.w3.org/2000/svg" xmlns:xlink="http://www.w3.org/1999/xlink" width="55.243mm" height="19.2473mm" viewBox="0 0 156.5944 54.5593"><defs><linearGradient id="a" x1="-129.5299" y1="2692.4777" x2="-138.5862" y2="2697.7064" gradientTransform="translate(2089.5458 -1854.0828) rotate(43.117)" gradientUnits="userSpaceOnUse"><stop offset="0" stop-color="#339c47"/><stop offset="1" stop-color="#1a7946"/></linearGradient><linearGradient id="b" x1="-152.2607" y1="2703.9864" x2="-149.3076" y2="2712.1" xlink:href="#a"/><linearGradient id="c" x1="-164.668" y1="2696.0877" x2="-135.5707" y2="2696.0877" gradientTransform="translate(2089.5458 -1854.0828) rotate(43.117)" gradientUnits="userSpaceOnUse"><stop offset="0" stop-color="#56ba59"/><stop offset="1" stop-color="#5ac2aa"/></linearGradient><linearGradient id="d" x1="-140.7886" y1="2712.8999" x2="-138.4478" y2="2699.6248" xlink:href="#c"/></defs><path d="M151.5789,32.9166h0a84.0083,84.0083,0,0,0,3.3148-10.9081,68.738,68.738,0,0,0,1.5217-9.8778l0-.0015c-.0771-5.0491-8.979-4.197-8.979-4.197a1.2253,1.2253,0,0,1,1.3112,1.2626,59.5054,59.5054,0,0,1-1.4745,10.9362,76.304,76.304,0,0,1-2.9857,9.83l-.42,1.0359a.0549.0549,0,0,1-.013.0188.0557.0557,0,0,1-.092-.0226S146.8718,38.9513,151.5789,32.9166Z" fill="url(#a)"/><path d="M128.5527,14.9241l-2.57-.6325a.056.056,0,0,1-.0117-.1043s-9.4411,3.4533-2.4982,7.7933l7.6055,2.0078a3.9589,3.9589,0,0,1,2.7354,2.57S132.1562,19.3732,128.5527,14.9241Z" fill="url(#b)"/><path d="M136.5635,10.1031a58.5544,58.5544,0,0,1,10.873-2.1709s8.9019-.8521,8.979,4.197c.1835-2.3125.1824-3.8828.1764-4.3548A7.5758,7.5758,0,0,0,148.4664.02l-.0012-.0022a62.097,62.097,0,0,0-14.271,2.6089,80.2364,80.2364,0,0,0-12.6431,4.9759,7.58,7.58,0,0,0,1.5644,14.283l-.0005.0006.3576.0944c-6.9429-4.34,2.4982-7.7933,2.4982-7.7933A74.8884,74.8884,0,0,1,136.5635,10.1031Z" fill="url(#c)"/><path d="M150.7056,35.0691l.0016.0006s.3466-.7786.8717-2.1531c-4.7071,6.0347-7.8165-1.9239-7.8165-1.9239l-2.6753-8.3064a9.5649,9.5649,0,0,0-6.8188-6.3556l-7.724-1.9009c4.5664,2.2191,7.2692,12.1281,7.2692,12.1281l2.6547,7.9944.0005-.0011a7.5792,7.5792,0,0,0,14.2369.5179Z" fill="url(#d)"/><path d="M10.18,5.49a8.947,8.947,0,0,1,8.0683,4.4645.6838.6838,0,0,1-.1767.8832l-3.1384,2.4007a1.0215,1.0215,0,0,1-1.4167-.177,3.9909,3.9909,0,0,0-3.2618-1.68,3.5923,3.5923,0,0,0-3.6909,3.8762,3.5939,3.5939,0,0,0,3.6909,3.8781,4.0688,4.0688,0,0,0,3.2595-1.67,1.0216,1.0216,0,0,1,1.4026-.1684l3.15,2.3815a.6836.6836,0,0,1,.18.8854A8.9451,8.9451,0,0,1,10.18,25.0281,9.8729,9.8729,0,0,1,.002,15.2581,9.8726,9.8726,0,0,1,10.18,5.49ZM69.1822,24.6687h-6.261a.0758.0758,0,0,1-.0758-.0759V14.1178a2.6145,2.6145,0,1,0-5.2207,0V23.983a.6857.6857,0,0,1-.6857.6857H51.8976a.6857.6857,0,0,1-.6857-.6857V14.1178a2.6139,2.6139,0,1,0-5.22,0v10.475a.0759.0759,0,0,1-.0759.0759H41.6188a2.04,2.04,0,0,1-2.04-2.04V6.0269h4.57a1.2837,1.2837,0,0,1,1.2837,1.2837h0a.0745.0745,0,0,0,.1256.0545,7.1857,7.1857,0,0,1,4.9825-1.7864,6.5676,6.5676,0,0,1,5.3563,2.325.0719.0719,0,0,0,.1065.0059,8.6372,8.6372,0,0,1,6.0581-2.3309c4.4368,0,7.1965,2.9838,7.1965,7.6069V24.5928A.0759.0759,0,0,1,69.1822,24.6687Zm14.24.7589a6.68,6.68,0,0,1-4.647-1.6.0747.0747,0,0,0-.1255.0548v5.4446H75.7968a3.56,3.56,0,0,1-3.56-3.56V6.4136a.0759.0759,0,0,1,.0759-.0759h4.1148A1.6623,1.6623,0,0,1,78.09,8v.0516a.0748.0748,0,0,0,.135.0445A6.1943,6.1943,0,0,1,83.4217,5.89c5.22,0,8.9484,4.0634,8.9484,9.7322C92.37,21.2886,88.5667,25.4276,83.4217,25.4276ZM82.1539,11.7058a3.57,3.57,0,0,0-3.6172,3.916c0,2.5336,1.6413,3.9876,3.6172,3.9876a3.6491,3.6491,0,0,0,3.6541-3.9518A3.609,3.609,0,0,0,82.1539,11.7058ZM51.66,53.7052H48.1235V52.25a7.1514,7.1514,0,0,1-5.115,1.8825c-3.8712,0-6.1094-2.522-6.1094-5.5069,0-3.3037,2.6643-5.2924,6.9623-5.2924h3.73v-.2847c0-1.3852-.853-2.2733-2.6994-2.2733-1.5788,0-2.707.6237-4.377,2.11a.0768.0768,0,0,1-.1125-.01l-.6049-.8241a3.7477,3.7477,0,0,1,1.4057-5.6162,10.3155,10.3155,0,0,1,4.4345-.9162c4.9727,0,8.063,2.77,8.063,7.8865v8.26A2.04,2.04,0,0,1,51.66,53.7052Zm-4.0691-6.6416H44.7135c-1.03,0-1.6339.4971-1.6339,1.3492s.6756,1.3852,1.8122,1.3852a2.5084,2.5084,0,0,0,2.6994-2.594ZM34.8588,24.2277H31.322V22.7722a7.1518,7.1518,0,0,1-5.115,1.8824c-3.8711,0-6.1093-2.5219-6.1093-5.5069,0-3.3037,2.6642-5.2924,6.9623-5.2924h3.73v-.2846c0-1.3853-.8529-2.2734-2.6993-2.2734-1.5789,0-2.7071.6237-4.3771,2.1105a.0769.0769,0,0,1-.1125-.01l-.6049-.8241a3.7477,3.7477,0,0,1,1.4058-5.6162,10.3138,10.3138,0,0,1,4.4345-.9163c4.9726,0,8.0629,2.7706,8.0629,7.8865v8.26A2.04,2.04,0,0,1,34.8588,24.2277ZM30.79,17.586H27.912c-1.0294,0-1.6338.4972-1.6338,1.3492s.6755,1.3853,1.8122,1.3853A2.5084,2.5084,0,0,0,30.79,17.7264ZM67.036,54.1322a5.3288,5.3288,0,0,1-4.659-2.0908.0752.0752,0,0,0-.1361.044v1.5439a.0759.0759,0,0,1-.0759.0759H58.42a2.04,2.04,0,0,1-2.04-2.04v-20.42a.076.076,0,0,1,.0759-.0759h2.2262a3.5586,3.5586,0,0,1,3.5588,3.5587v2.256a.0742.0742,0,0,0,.1245.0553,7.0542,7.0542,0,0,1,4.6706-1.5208c4.9016,0,8.525,3.9432,8.525,9.3419S72.0087,54.1322,67.036,54.1322ZM65.8282,41.06A3.4623,3.4623,0,0,0,62.3821,44.86a3.4016,3.4016,0,0,0,3.4461,3.7307,3.44,3.44,0,0,0,3.4812-3.7667A3.4765,3.4765,0,0,0,65.8282,41.06Zm20.8825-5.541a9.3134,9.3134,0,1,1-9.6617,9.3059A9.4514,9.4514,0,0,1,86.7107,35.5185Zm.0351,5.6131a3.4264,3.4264,0,0,0-3.4451,3.6928,3.3892,3.3892,0,0,0,3.4451,3.6946,3.4418,3.4418,0,0,0,3.41-3.6946A3.4608,3.4608,0,0,0,86.7458,41.1316Zm29.0022,4.0955V38.62a3.094,3.094,0,0,0-6.188,0v7.0008a2.6466,2.6466,0,1,1-5.2914,0V38.62a3.0938,3.0938,0,0,0-6.1876,0v6.6073a8.8338,8.8338,0,1,0,17.667,0Zm11.2466,3.8614c-2.2374,0-3.0543-.64-3.0543-2.3437V41.5886a.1019.1019,0,0,1,.1021-.102h1.9824A2.6355,2.6355,0,0,0,128.7,38.9971a2.5568,2.5568,0,0,0-2.556-2.6246h-2.1011a.102.102,0,0,1-.1021-.102v-.6032a3.5573,3.5573,0,0,0-3.2984-3.5454c-.0872-.0064-.1742-.0133-.263-.0133l-2.472,0a.0759.0759,0,0,0-.0759.0759V47.3483c0,4.7952,2.8056,7.211,7.8144,7.211a15.1968,15.1968,0,0,0,3.5874-.4274V51.2576A2.17,2.17,0,0,0,126.9946,49.0885Zm-30.311-31.081a7.4329,7.4329,0,0,0,5.1716,2.3235c1.087,0,1.649-.2624,1.649-.8245,0-.4124-.3-.5995-1.0866-.937l-2.0989-.862c-3.71-1.499-5.4341-3.073-5.4341-6.0336,0-3.71,2.8856-5.884,7.2706-5.884a9.8143,9.8143,0,0,1,5.6735,1.5712,1.72,1.72,0,0,1,.367,2.4676l-2.0305,2.6322a6.0192,6.0192,0,0,0-3.9725-1.6115c-.862,0-1.312.2246-1.312.712,0,.4121.375.6746,1.2745,1.012l1.8739.75c3.7476,1.499,5.4716,2.9231,5.4716,5.8837a5.4618,5.4618,0,0,1-2.1739,4.572,9.0623,9.0623,0,0,1-5.5841,1.649,10.4922,10.4922,0,0,1-6.9373-2.4094,1.7216,1.7216,0,0,1-.2043-2.3558Z" fill="#393839"/></svg>